<svg xmlns="http://www.w3.org/2000/svg" viewBox="0 0 60 26" fill="none">
  <path d="M12 5.5h5.4c3.2 0 5.6.8 5.6 3.8 0 2.8-2 5-4.8 5h-2.2l-1 5.8H12l2.3-14.6z" fill="#003087"/>
  <path d="M15.8 8.4h4.7c2.7 0 4.8.7 4.8 3.3 0 2.5-1.8 4.4-4.3 4.4h-1.9l-.9 5H16l2.2-12.7z" fill="#0079C1"/>
  <path d="M15.8 8.4h4c2.3 0 4.1.5 4.1 2.8 0 2.1-1.6 3.6-3.7 3.6h-1.6l-.8 4.3h-2.1l2-10.7z" fill="#00457C"/>
  <text x="30" y="17.5" font-family="Arial, -apple-system, sans-serif" font-weight="900" font-size="12.5" fill="#003087" font-style="italic">Pay<tspan fill="#0079C1">Pal</tspan></text>
</svg>
